<svg width="40" height="40" viewBox="0 0 40 40" fill="none" xmlns="http://www.w3.org/2000/svg">
<path d="M24.9195 0.0105972C24.878 0.00265827 24.8508 0.00021339 24.8351 0C24.7855 0.0216048 24.718 0.0439224 24.6512 0.0649337C24.5629 0.0926731 24.4475 0.12658 24.309 0.165664C24.0318 0.243938 23.6555 0.344863 23.206 0.461861C22.3064 0.695957 21.1087 0.995655 19.8121 1.30947C17.2211 1.9366 14.2263 2.62239 12.4273 2.95336C9.95785 3.4077 4.65132 4.5248 1.33291 5.23458C1.45119 5.2615 1.5749 5.29001 1.70338 5.31993C2.63234 5.53627 3.81797 5.82812 5.02085 6.13068C6.50417 6.50376 8.01564 6.8936 9.10809 7.17919C11.5027 6.74188 15.0785 6.09827 18.125 5.57019C19.6616 5.30385 21.0646 5.06669 22.1139 4.90019L22.1561 4.8935C21.674 4.79377 21.1754 4.68131 20.7696 4.56919C20.1471 4.39717 19.4308 4.05538 18.8812 3.76478C18.604 3.61816 18.3644 3.48199 18.194 3.38241C18.1087 3.33258 18.0406 3.29184 17.9936 3.26341C17.9701 3.2492 17.9519 3.23806 17.9394 3.2304C17.9332 3.22657 17.9284 3.22361 17.9251 3.22157L17.9213 3.21921L17.9199 3.21836C17.9199 3.21836 17.9198 3.21826 18.0733 2.96917C18.2689 2.65198 18.6004 2.87948 18.8977 3.08349C18.9874 3.14506 19.074 3.20449 19.1528 3.24617C19.6947 3.53268 20.3652 3.84963 20.9243 4.00413C22.0451 4.31384 23.9222 4.63126 24.0638 4.65502C24.0691 4.65583 24.0749 4.65681 24.081 4.65804C24.0796 4.65777 24.079 4.65763 24.0793 4.65759C24.0796 4.65754 24.0807 4.65757 24.0827 4.65763C24.0913 4.65788 24.1167 4.65863 24.1661 4.6558C24.2305 4.65212 24.3164 4.64376 24.4231 4.63055C24.6359 4.60418 24.9178 4.56016 25.249 4.50233C25.9107 4.3868 26.7577 4.21819 27.6188 4.03189C28.4798 3.84558 29.352 3.64222 30.0641 3.45743C30.7905 3.26894 31.3149 3.10836 31.5084 3.01113C31.9277 2.8005 32.7866 2.51192 33.6076 2.27558C33.8142 2.21612 34.0203 2.1594 34.2189 2.10749C32.9097 1.85716 31.2209 1.59627 29.95 1.48758C28.7211 1.38249 27.4779 0.950979 26.5115 0.582835C26.3404 0.517666 26.1795 0.45508 26.0289 0.396513L26.0287 0.39643C25.7463 0.286597 25.5003 0.1909 25.2916 0.1188C25.1324 0.0638193 25.0094 0.0277738 24.9195 0.0105972Z" fill="white"/>
<path d="M11.3485 39.8279L10.5828 39.0158C10.5078 38.4899 10.3441 37.3496 10.1922 36.3196C10.1228 35.8487 10.0654 34.8348 9.99736 33.634C9.96893 33.132 9.93864 32.5973 9.90486 32.0561C9.84805 31.146 9.78156 30.2241 9.69735 29.4267C9.61391 28.6365 9.51091 27.945 9.37525 27.5088C9.22136 27.0139 8.94089 26.1891 8.61778 25.2389C8.40921 24.6256 8.18285 23.9599 7.96133 23.297C7.39129 21.5914 6.85744 19.9165 6.71077 19.1305C6.56417 18.3448 6.50147 17.1015 6.45076 15.8848C6.44535 15.755 6.44008 15.6254 6.43484 15.4967C6.39186 14.4404 6.35128 13.4428 6.25759 12.9015C6.1736 12.4163 5.96327 11.5942 5.74689 10.7486C5.69686 10.5531 5.6465 10.3563 5.59731 10.1621C5.46501 9.63987 5.34007 9.13278 5.24829 8.70683C5.15436 8.27094 5.10203 7.94949 5.10203 7.78309C5.10203 7.37694 5.14014 7.01944 5.17796 6.77444C6.5091 7.11038 7.83894 7.45331 8.84419 7.71577C9.24348 9.87596 10.0241 14.3416 10.2187 16.3749C10.4432 18.7209 10.9455 20.5941 11.6112 23.0762C11.7017 23.4135 11.7951 23.7621 11.8914 24.1246C12.6106 26.8346 12.8447 28.8507 13.1414 31.4048C13.1749 31.6933 13.2092 31.9886 13.2451 32.2926C13.5093 34.5299 13.7357 38.1679 13.8317 40L11.3485 39.8279Z" fill="white"/>
<path d="M1.5717 5.89083C2.42662 6.08993 3.5022 6.35383 4.61008 6.63158C4.56451 6.90966 4.51881 7.31909 4.51881 7.78309C4.51881 8.02207 4.58624 8.40371 4.67828 8.83084C4.77245 9.26791 4.89966 9.78378 5.03211 10.3067C5.08307 10.5078 5.13466 10.7095 5.18548 10.9082L5.18552 10.9084C5.4015 11.7527 5.60342 12.5421 5.683 13.0019C5.76956 13.502 5.80857 14.4565 5.85248 15.5308C5.85758 15.6556 5.86274 15.7819 5.86805 15.9093C5.91819 17.1123 5.98157 18.4026 6.13754 19.2385C6.29345 20.074 6.84383 21.7942 7.40846 23.4836C7.63354 24.1571 7.8616 24.8277 8.07066 25.4425L8.07083 25.443C8.39108 26.3847 8.6667 27.1952 8.81858 27.6836C8.93507 28.0581 9.03378 28.6968 9.11739 29.4885C9.20024 30.2731 9.26612 31.1849 9.32278 32.0927C9.35512 32.6108 9.38452 33.1299 9.41246 33.6232L9.41249 33.6237C9.48161 34.8441 9.5418 35.9068 9.61533 36.4055C9.74388 37.2774 9.88098 38.2288 9.96537 38.8184L8.08414 38.6173L7.60493 38.0482C7.54402 37.9759 7.45207 37.9376 7.35811 37.9455L5.8846 38.0689C5.94539 37.2555 6.00931 36.1217 6.02988 35.01C6.05333 33.7429 6.02175 32.4653 5.85072 31.7349C5.65552 30.9013 5.59335 30.0008 5.53642 29.0792C5.53479 29.0527 5.53315 29.0261 5.53152 28.9995L5.52862 28.9524C5.47508 28.081 5.42044 27.1916 5.24697 26.3699C5.10015 25.6744 4.73522 24.6443 4.35765 23.5786C4.2681 23.3258 4.17785 23.0711 4.08962 22.8183C3.85676 22.1511 3.6355 21.4916 3.46947 20.8999C3.30206 20.3033 3.19701 19.7966 3.18557 19.4287C3.13478 17.7956 2.78036 14.2167 2.01147 11.8474C1.8206 11.2593 1.56353 10.545 1.29844 9.80994L1.27766 9.7523L1.2776 9.75214C1.01824 9.03299 0.752127 8.2951 0.529384 7.62671C0.299524 6.93696 0.121006 6.3362 0.0423131 5.91297C0.0131147 5.75594 0.000792221 5.63874 0 5.55752C0.0127135 5.55944 0.0264032 5.56159 0.0411083 5.56398C0.137376 5.57962 0.262078 5.60305 0.412681 5.63369C0.713567 5.69491 1.10946 5.78318 1.5717 5.89083Z" fill="white"/>
<path d="M31.6626 21.5339C33.0646 21.1564 33.8851 19.6652 33.4953 18.2032C33.4725 18.1179 33.4461 18.0345 33.4164 17.9533C33.2346 17.9017 33.0429 17.874 32.8447 17.874C31.6871 17.874 30.7487 18.8169 30.7487 19.9801C30.7487 20.6183 31.0313 21.1902 31.4775 21.5765C31.5392 21.5647 31.601 21.5505 31.6626 21.5339Z" fill="white"/>
<path d="M20.8083 23.0034C22.1383 22.5762 22.9023 21.128 22.5235 19.7073C22.4686 19.5014 22.3926 19.3071 22.2986 19.1262C22.1612 19.0977 22.0188 19.0827 21.8729 19.0827C20.7153 19.0827 19.7769 20.0256 19.7769 21.1888C19.7769 21.9614 20.191 22.6369 20.8083 23.0034Z" fill="white"/>
<path fill-rule="evenodd" clip-rule="evenodd" d="M10.7992 16.3188C10.605 14.289 9.84134 9.90916 9.43716 7.71476C11.8259 7.27908 15.2738 6.65911 18.2242 6.1477C19.7599 5.88149 21.1597 5.6449 22.2049 5.47905C22.7277 5.39609 23.1599 5.33112 23.4754 5.28902C23.6334 5.26794 23.7597 5.25292 23.8523 5.24421C23.9209 5.23777 23.9577 5.23629 23.9726 5.23569C23.9773 5.2355 23.9798 5.2354 23.9805 5.23526C24.0496 5.24691 24.1307 5.24481 24.1992 5.24089C24.2815 5.23618 24.3815 5.22618 24.4945 5.21218C24.7209 5.18411 25.0135 5.13827 25.3489 5.07971C26.0204 4.96246 26.8754 4.79219 27.7415 4.60479C28.6077 4.41738 29.488 4.21219 30.2099 4.02485C30.9176 3.84121 31.5089 3.66609 31.7693 3.53529C32.1346 3.35173 32.9457 3.07574 33.7683 2.83895C34.1753 2.72178 34.5774 2.6164 34.9181 2.53883C35.1768 2.47994 35.3889 2.43973 35.5384 2.42056C35.5577 3.03859 35.6261 4.41386 35.7163 5.84704C35.8231 7.54425 35.9625 9.35936 36.0919 10.1132C36.1616 10.5197 36.2779 11.1564 36.4115 11.8877C36.5196 12.4792 36.6389 13.1327 36.7541 13.7763C37.0137 15.227 37.25 16.6169 37.299 17.183C37.3493 17.7639 37.4248 18.7501 37.5005 19.739C37.5761 20.7264 37.6519 21.7163 37.7024 22.3009C37.7396 22.7302 37.8369 23.3216 37.9417 23.9586L37.9418 23.9596C37.9825 24.207 38.0244 24.4612 38.0642 24.7154C38.2095 25.6422 38.3308 26.579 38.3067 27.282C38.2812 28.0241 38.281 28.9626 38.3709 29.8983C38.4604 30.8295 38.641 31.7799 38.9892 32.5335L39.0401 32.6436L39.0403 32.6441C39.2956 33.1966 39.5599 33.7685 39.7665 34.2249C39.8581 34.4273 39.938 34.606 40.0004 34.7496L38.7872 34.8973L37.6958 34.4682C37.59 34.4266 37.4698 34.4505 37.3878 34.5295L36.1775 35.695C36.1739 35.6984 36.1704 35.702 36.167 35.7056C36.1662 35.7064 36.1655 35.7072 36.1647 35.708L36.1633 35.7096L36.1622 35.7108C36.1615 35.7116 36.1608 35.7124 36.16 35.7132C36.1542 35.72 36.1486 35.727 36.1434 35.7342L35.8432 36.1489L33.546 35.8191C33.4551 35.8061 33.3634 35.8368 33.2985 35.902L32.4258 36.779H31.3867C31.3282 36.779 31.2711 36.7967 31.2227 36.8297L30.0858 37.6065L28.7135 37.1009C28.5741 37.0496 28.4186 37.1116 28.3523 37.245L27.9567 38.04L26.6268 37.652C26.518 37.6203 26.4007 37.6548 26.326 37.7405L25.4354 38.7632L24.2866 37.9937C24.2104 37.9426 24.1147 37.9305 24.0282 37.961L22.2635 38.584L21.0525 38.116C20.9386 38.072 20.8095 38.1039 20.7289 38.1959L19.7458 39.3184L18.3646 38.8707C18.2757 38.8419 18.1784 38.8576 18.103 38.913L16.8687 39.8194H15.6527C15.6399 39.8194 15.627 39.8202 15.6142 39.8219L14.4149 39.9826C14.319 38.1522 14.0914 34.4862 13.8243 32.2236C13.7884 31.9199 13.7541 31.6244 13.7206 31.3353C13.4242 28.7826 13.1854 26.7264 12.4549 23.9736C12.3591 23.6127 12.2663 23.2665 12.1767 22.9323L12.176 22.9298L12.1746 22.9246L12.1744 22.9237C11.5078 20.4372 11.0188 18.613 10.7992 16.3188ZM31.1755 21.9769C32.6795 21.9769 33.8987 20.6157 33.8987 18.9365C33.8987 17.2574 32.6795 15.8962 31.1755 15.8962C29.6715 15.8962 28.4523 17.2574 28.4523 18.9365C28.4523 20.6157 29.6715 21.9769 31.1755 21.9769ZM20.7694 23.2971C22.3248 22.8784 23.235 21.224 22.8025 19.6021C22.37 17.9802 20.7585 17.0048 19.2032 17.4236C17.6478 17.8423 16.7376 19.4967 17.1701 21.1186C17.6026 22.7405 19.2141 23.7159 20.7694 23.2971ZM28.8774 24.8891C28.8395 24.6324 28.6769 24.4411 28.4764 24.3454C28.2999 24.2612 27.9581 24.23 27.7679 24.2245C27.3839 24.2133 26.9591 24.2916 26.7148 24.3454C26.4168 24.4081 25.9838 24.5401 25.6343 24.7281C25.461 24.8214 25.2865 24.9398 25.1629 25.0877C25.0349 25.241 24.9415 25.4544 25.0096 25.7003C25.0371 25.7993 25.0951 25.8821 25.1484 25.9441C25.2047 26.0098 25.2739 26.073 25.3486 26.1322C25.4984 26.2509 25.6907 26.3692 25.901 26.4735C26.2596 26.6512 26.8745 26.8158 27.1943 26.8413L27.6894 28.9515C27.6724 28.9799 27.651 29.015 27.6257 29.0555C27.5543 29.1701 27.4528 29.3271 27.332 29.4969C27.0848 29.8444 26.7778 30.2157 26.4979 30.4042C26.1442 30.6423 25.4911 30.8452 24.894 30.9903C24.6018 31.0613 24.3333 31.1162 24.1378 31.1533C24.0401 31.1718 23.9609 31.1858 23.9063 31.1952C23.8009 31.2133 23.8148 31.2645 23.8377 31.3489C23.8453 31.3771 23.8539 31.4089 23.8595 31.4444C23.8634 31.4695 23.8649 31.4954 23.8664 31.5202C23.8717 31.6087 23.8761 31.6835 23.9862 31.6646C24.0432 31.6548 24.1251 31.6402 24.2257 31.6211C24.4267 31.583 24.7034 31.5265 25.0054 31.4531C25.597 31.3094 26.3289 31.0911 26.7616 30.7997C27.1188 30.5593 27.4679 30.1247 27.7175 29.7737C27.8452 29.5942 27.9523 29.4287 28.0274 29.3082C28.0304 29.3033 28.0334 29.2984 28.0364 29.2937C28.0451 29.2975 28.0541 29.3014 28.0634 29.3054C28.2011 29.3649 28.3944 29.4449 28.6173 29.5272C29.0577 29.6896 29.6347 29.8689 30.13 29.9054C30.633 29.9425 31.2903 29.8092 31.8006 29.6767C32.0603 29.6093 32.2903 29.5399 32.4553 29.4872C32.5379 29.4609 32.6045 29.4387 32.6506 29.4231C32.7464 29.3905 32.7104 29.3161 32.6736 29.24C32.6627 29.2176 32.6518 29.1951 32.6442 29.1735C32.6357 29.1496 32.6297 29.1233 32.6239 29.0977C32.6052 29.0162 32.5881 28.9417 32.4988 28.972C32.4552 28.9868 32.3915 29.008 32.312 29.0334C32.1529 29.0841 31.9315 29.151 31.6821 29.2157C31.1744 29.3475 30.5833 29.4614 30.1646 29.4305C29.7382 29.3991 29.2125 29.2395 28.7807 29.0802C28.5675 29.0015 28.3823 28.9249 28.2505 28.868C28.2104 28.8506 28.1753 28.8351 28.1459 28.822L27.6465 26.6936C27.9379 26.503 28.2482 26.2176 28.4399 25.9441C28.4625 25.9119 28.4869 25.878 28.5122 25.8429C28.6225 25.6897 28.7484 25.515 28.8045 25.3652C28.8718 25.1852 28.9057 25.0814 28.8774 24.8891Z" fill="white"/>
</svg>
